<?xml version="1.0" encoding="utf-8"?><svg width="192" height="192" viewBox="0 0 192 192" xmlns="http://www.w3.org/2000/svg" xmlns:xlink="http://www.w3.org/1999/xlink"><svg height="48" viewBox="0 0 24 24" width="48" id="ic_collections_black_48px" x="48"><path d="M0 0h24v24H0z" fill="none"/><path d="M22 16V4c0-1.1-.9-2-2-2H8c-1.1 0-2 .9-2 2v12c0 1.1.9 2 2 2h12c1.1 0 2-.9 2-2zm-11-4l2.03 2.71L16 11l4 5H8l3-4zM2 6v14c0 1.1.9 2 2 2h14v-2H4V6H2z"/></svg><svg height="48" viewBox="0 0 24 24" width="48" id="ic_content_paste_black_48px" x="48" y="96"><path d="M19 2h-4.18C14.4.84 13.3 0 12 0c-1.3 0-2.4.84-2.82 2H5c-1.1 0-2 .9-2 2v16c0 1.1.9 2 2 2h14c1.1 0 2-.9 2-2V4c0-1.1-.9-2-2-2zm-7 0c.55 0 1 .45 1 1s-.45 1-1 1-1-.45-1-1 .45-1 1-1zm7 18H5V4h2v3h10V4h2v16z"/><path d="M0 0h24v24H0z" fill="none"/></svg><svg height="48" viewBox="0 0 24 24" width="48" id="ic_format_bold_black_48px" y="48"><path d="M15.6 10.79c.97-.67 1.65-1.77 1.65-2.79 0-2.26-1.75-4-4-4H7v14h7.04c2.09 0 3.71-1.7 3.71-3.79 0-1.52-.86-2.82-2.15-3.42zM10 6.5h3c.83 0 1.5.67 1.5 1.5s-.67 1.5-1.5 1.5h-3v-3zm3.5 9H10v-3h3.5c.83 0 1.5.67 1.5 1.5s-.67 1.5-1.5 1.5z"/><path d="M0 0h24v24H0z" fill="none"/></svg><svg height="48" viewBox="0 0 24 24" width="48" id="ic_format_indent_decrease_black_48px" x="48" y="48"><path d="M11 17h10v-2H11v2zm-8-5l4 4V8l-4 4zm0 9h18v-2H3v2zM3 3v2h18V3H3zm8 6h10V7H11v2zm0 4h10v-2H11v2z"/><path d="M0 0h24v24H0z" fill="none"/></svg><svg height="48" viewBox="0 0 24 24" width="48" id="ic_format_indent_increase_black_48px" x="96"><path d="M3 21h18v-2H3v2zM3 8v8l4-4-4-4zm8 9h10v-2H11v2zM3 3v2h18V3H3zm8 6h10V7H11v2zm0 4h10v-2H11v2z"/><path d="M0 0h24v24H0z" fill="none"/></svg><svg height="48" viewBox="0 0 24 24" width="48" id="ic_format_italic_black_48px" x="96" y="48"><path d="M0 0h24v24H0z" fill="none"/><path d="M10 4v3h2.21l-3.42 8H6v3h8v-3h-2.21l3.42-8H18V4z"/></svg><svg height="48" viewBox="0 0 24 24" width="48" id="ic_format_list_bulleted_black_48px" y="96"><path d="M4 10.5c-.83 0-1.5.67-1.5 1.5s.67 1.5 1.5 1.5 1.5-.67 1.5-1.5-.67-1.5-1.5-1.5zm0-6c-.83 0-1.5.67-1.5 1.5S3.17 7.5 4 7.5 5.5 6.83 5.5 6 4.83 4.5 4 4.5zm0 12.17c-.74 0-1.33.6-1.33 1.33s.6 1.33 1.33 1.33 1.33-.6 1.33-1.33-.59-1.33-1.33-1.33zM7 19h14v-2H7v2zm0-6h14v-2H7v2zm0-8v2h14V5H7z"/><path d="M0 0h24v24H0z" fill="none"/></svg><svg height="48" viewBox="0 0 24 24" width="48" id="ic_format_list_numbered_black_48px"><path d="M2 17h2v.5H3v1h1v.5H2v1h3v-4H2v1zm1-9h1V4H2v1h1v3zm-1 3h1.8L2 13.1v.9h3v-1H3.2L5 10.9V10H2v1zm5-6v2h14V5H7zm0 14h14v-2H7v2zm0-6h14v-2H7v2z"/><path d="M0 0h24v24H0z" fill="none"/></svg><svg height="48" viewBox="0 0 24 24" width="48" id="ic_grid_on_black_48px" x="96" y="96"><path d="M0 0h24v24H0z" fill="none"/><path d="M20 2H4c-1.1 0-2 .9-2 2v16c0 1.1.9 2 2 2h16c1.1 0 2-.9 2-2V4c0-1.1-.9-2-2-2zM8 20H4v-4h4v4zm0-6H4v-4h4v4zm0-6H4V4h4v4zm6 12h-4v-4h4v4zm0-6h-4v-4h4v4zm0-6h-4V4h4v4zm6 12h-4v-4h4v4zm0-6h-4v-4h4v4zm0-6h-4V4h4v4z"/></svg><svg height="48" viewBox="0 0 24 24" width="48" id="ic_link_black_48px" x="144"><path d="M0 0h24v24H0z" fill="none"/><path d="M3.9 12c0-1.71 1.39-3.1 3.1-3.1h4V7H7c-2.76 0-5 2.24-5 5s2.24 5 5 5h4v-1.9H7c-1.71 0-3.1-1.39-3.1-3.1zM8 13h8v-2H8v2zm9-6h-4v1.9h4c1.71 0 3.1 1.39 3.1 3.1s-1.39 3.1-3.1 3.1h-4V17h4c2.76 0 5-2.24 5-5s-2.24-5-5-5z"/></svg><svg height="48" viewBox="0 0 24 24" width="48" id="ic_redo_black_48px" x="144" y="48"><path d="M0 0h24v24H0z" fill="none"/><path d="M18.4 10.6C16.55 8.99 14.15 8 11.5 8c-4.65 0-8.58 3.03-9.96 7.22L3.9 16c1.05-3.19 4.05-5.5 7.6-5.5 1.95 0 3.73.72 5.12 1.88L13 16h9V7l-3.6 3.6z"/></svg><svg height="48" viewBox="0 0 24 24" width="48" id="ic_undo_black_48px" x="144" y="96"><path d="M0 0h24v24H0z" fill="none"/><path d="M12.5 8c-2.65 0-5.05.99-6.9 2.6L2 7v9h9l-3.62-3.62c1.39-1.16 3.16-1.88 5.12-1.88 3.54 0 6.55 2.31 7.6 5.5l2.37-.78C21.08 11.03 17.15 8 12.5 8z"/></svg><svg viewBox="0 0 24 24" height="48" width="48" id="ic_unlink_black_48px" y="144"><path d="M0 0h24v24H0z" fill="none"/><path d="M4.762 2.53l-1.46 1.367L6.26 7.06C3.85 7.42 2 9.494 2 12c0 2.76 2.24 5 5 5h4v-1.9H7c-1.71 0-3.1-1.39-3.1-3.1S5.29 8.9 7 8.9h.98L9.941 11H8v2h3.812l1.964 2.1H13V17h2.553l3.99 4.268 1.46-1.368-2.843-3.04c2.2-.525 3.84-2.5 3.84-4.86 0-2.76-2.24-5-5-5h-4v1.9h4c1.71 0 3.1 1.39 3.1 3.1s-1.39 3.1-3.1 3.1h-.485L14.552 13H16v-2h-3.318l-1.963-2.1H11V7H8.942l-4.18-4.47z"/></svg><svg height="48" viewBox="0 0 24 24" width="48" id="ic_web_black_48px" x="48" y="144"><path d="M20 4H4c-1.1 0-1.99.9-1.99 2L2 18c0 1.1.9 2 2 2h16c1.1 0 2-.9 2-2V6c0-1.1-.9-2-2-2zm-5 14H4v-4h11v4zm0-5H4V9h11v4zm5 5h-4V9h4v9z"/><path d="M0 0h24v24H0z" fill="none"/></svg></svg>